<svg width="24" height="24" viewBox="0 0 24 24" fill="none" xmlns="http://www.w3.org/2000/svg">
<g clip-path="url(#clip0_20_304)">
<path fill-rule="evenodd" clip-rule="evenodd" d="M9.34344 0.2985C10.9968 -0.0768192 12.711 -0.0975227 14.3729 0.237753C16.0349 0.57303 17.6069 1.25667 18.9855 2.24364C20.364 3.23061 21.5178 4.49849 22.3707 5.96375C23.2237 7.42901 23.7564 9.05838 23.9339 10.7445C23.9652 11.0413 23.8772 11.3383 23.6895 11.5702C23.5017 11.8022 23.2295 11.95 22.9327 11.9813C22.6359 12.0125 22.3389 11.9245 22.107 11.7368C21.875 11.549 21.7272 11.2768 21.6959 10.98C21.5031 9.14794 20.7952 7.40798 19.6542 5.96169C18.5132 4.5154 16.9858 3.42195 15.2489 2.80799C13.5121 2.19404 11.6368 2.0847 9.84036 2.49266C8.04392 2.90061 6.3998 3.80915 5.09846 5.11305C3.79711 6.41695 2.8918 8.06284 2.48737 9.86009C2.08294 11.6573 2.19595 13.5324 2.81331 15.268C3.43067 17.0037 4.52711 18.5289 5.97564 19.6671C7.42417 20.8053 9.1655 21.5098 10.9979 21.699C11.146 21.7128 11.2898 21.7558 11.4211 21.8255C11.5524 21.8953 11.6686 21.9903 11.763 22.1052C11.8573 22.2201 11.9279 22.3526 11.9708 22.4949C12.0136 22.6373 12.0278 22.7868 12.0126 22.9346C11.9973 23.0825 11.9529 23.2259 11.8819 23.3565C11.8108 23.4872 11.7146 23.6024 11.5988 23.6956C11.483 23.7888 11.3498 23.8581 11.207 23.8996C11.0643 23.941 10.9147 23.9537 10.7669 23.937C7.93632 23.6458 5.3013 22.3581 3.3322 20.3039C1.36311 18.2496 0.188089 15.5625 0.0168713 12.7221C-0.154346 9.88164 0.689381 7.07281 2.39746 4.79691C4.10554 2.52101 6.5668 0.926151 9.34194 0.297L9.34344 0.2985ZM16.9199 15.3285C16.8161 15.2211 16.6919 15.1355 16.5547 15.0766C16.4174 15.0177 16.2697 14.9867 16.1204 14.9855C15.971 14.9842 15.8229 15.0128 15.6846 15.0694C15.5464 15.126 15.4208 15.2096 15.3152 15.3153C15.2097 15.421 15.1262 15.5466 15.0697 15.6849C15.0132 15.8232 14.9848 15.9714 14.9862 16.1207C14.9875 16.2701 15.0186 16.4177 15.0777 16.5549C15.1367 16.6922 15.2224 16.8163 15.3299 16.92L17.9099 19.5L15.3299 22.08C15.2194 22.183 15.1308 22.3072 15.0693 22.4452C15.0078 22.5832 14.9747 22.7322 14.9721 22.8832C14.9694 23.0343 14.9972 23.1843 15.0538 23.3244C15.1103 23.4645 15.1946 23.5917 15.3014 23.6986C15.4082 23.8054 15.5355 23.8896 15.6755 23.9462C15.8156 24.0028 15.9657 24.0306 16.1167 24.0279C16.2678 24.0252 16.4168 23.9922 16.5548 23.9307C16.6927 23.8692 16.8169 23.7805 16.9199 23.67L19.4999 21.09L22.0799 23.67C22.1829 23.7805 22.3071 23.8692 22.4451 23.9307C22.5831 23.9922 22.7321 24.0252 22.8832 24.0279C23.0342 24.0306 23.1843 24.0028 23.3243 23.9462C23.4644 23.8896 23.5917 23.8054 23.6985 23.6986C23.8053 23.5917 23.8895 23.4645 23.9461 23.3244C24.0027 23.1843 24.0305 23.0343 24.0278 22.8832C24.0252 22.7322 23.9921 22.5832 23.9306 22.4452C23.8691 22.3072 23.7805 22.183 23.6699 22.08L21.0899 19.5L23.6699 16.92C23.7805 16.817 23.8691 16.6928 23.9306 16.5548C23.9921 16.4168 24.0252 16.2678 24.0278 16.1168C24.0305 15.9657 24.0027 15.8157 23.9461 15.6756C23.8895 15.5355 23.8053 15.4083 23.6985 15.3014C23.5917 15.1946 23.4644 15.1104 23.3243 15.0538C23.1843 14.9972 23.0342 14.9694 22.8832 14.9721C22.7321 14.9748 22.5831 15.0078 22.4451 15.0693C22.3071 15.1308 22.1829 15.2195 22.0799 15.33L19.4999 17.91L16.9199 15.3285ZM17.2949 9.42C17.4937 9.20674 17.6018 8.92467 17.5967 8.63322C17.5916 8.34176 17.4735 8.06369 17.2674 7.85757C17.0613 7.65145 16.7832 7.53338 16.4917 7.52824C16.2003 7.5231 15.9182 7.63128 15.7049 7.83L9.74994 13.785L7.91994 11.955C7.70668 11.7563 7.42461 11.6481 7.13316 11.6532C6.84171 11.6584 6.56363 11.7764 6.35751 11.9826C6.15139 12.1887 6.03332 12.4668 6.02818 12.7582C6.02304 13.0497 6.13122 13.3317 6.32994 13.545L8.95494 16.17C9.16588 16.3807 9.45182 16.499 9.74994 16.499C10.0481 16.499 10.334 16.3807 10.5449 16.17L17.2949 9.42Z" fill="#F24822"/>
</g>
<defs>
<clipPath id="clip0_20_304">
<rect width="24" height="24" fill="white"/>
</clipPath>
</defs>
</svg>
